<svg xmlns="http://www.w3.org/2000/svg" xmlns:svg="http://www.w3.org/2000/svg" id="svg2994" width="512" height="512" x="0" y="0" enable-background="new 0 0 512 512" version="1.1" viewBox="0 0 512 512" xml:space="preserve"><metadata id="metadata3001"/><path id="crosshair-5-icon" d="M256,50C142.229,50,50,142.229,50,256c0,113.771,92.229,206,206,206s206-92.229,206-206 C462,142.229,369.771,50,256,50z M256,422c-85.634,0-155.075-64.428-164.81-146h73.877v-40H91.19 c9.023-75.611,69.066-135.771,144.81-144.81v73.878h40V91.19c75.612,9.024,135.771,69.066,144.81,144.81h-73.877v40h73.877 C411.075,357.554,341.657,422,256,422z M203.097,345.333h105.807l12.097,25H191L203.097,345.333z M213.742,323.333h84.516 l-12.097-25h-60.322L213.742,323.333z M236.483,276.333h39.033L256,236L236.483,276.333z" style="fill-opacity:1;fill:#325d9b"/></svg>